<?xml version="1.0" encoding="UTF-8"?>
<svg id="Layer_1" data-name="Layer 1" xmlns="http://www.w3.org/2000/svg" viewBox="0 0 357.5 350.85">
  <defs>
    <style>
      .cls-1 {
        stroke-linecap: round;
        stroke-width: 1.49px;
      }

      .cls-1, .cls-2, .cls-3, .cls-4, .cls-5, .cls-6, .cls-7, .cls-8, .cls-9, .cls-10, .cls-11, .cls-12, .cls-13, .cls-14, .cls-15, .cls-16, .cls-17, .cls-18, .cls-19, .cls-20, .cls-21, .cls-22, .cls-23, .cls-24, .cls-25, .cls-26, .cls-27 {
        stroke-miterlimit: 10;
      }

      .cls-1, .cls-2, .cls-3, .cls-5, .cls-6, .cls-7, .cls-12, .cls-13, .cls-14, .cls-15, .cls-17, .cls-18, .cls-22, .cls-25, .cls-26 {
        stroke: #231f20;
      }

      .cls-1, .cls-22, .cls-27 {
        fill: none;
      }

      .cls-2 {
        fill: #676151;
      }

      .cls-2, .cls-3, .cls-5, .cls-6, .cls-7, .cls-8, .cls-9, .cls-10, .cls-11, .cls-12, .cls-13, .cls-14, .cls-15, .cls-22 {
        stroke-width: 1.15px;
      }

      .cls-3 {
        fill: #9c8e80;
      }

      .cls-4 {
        fill: #eeb974;
        stroke-width: 1.15px;
      }

      .cls-4, .cls-8, .cls-9, .cls-10, .cls-11, .cls-16 {
        stroke: #7e381b;
      }

      .cls-5 {
        fill: #8ecebe;
      }

      .cls-6 {
        fill: #919287;
      }

      .cls-7 {
        fill: #bb9994;
      }

      .cls-8 {
        fill: #c16732;
      }

      .cls-9 {
        fill: #de824a;
      }

      .cls-10 {
        fill: #e18150;
      }

      .cls-11 {
        fill: #ae5727;
      }

      .cls-12, .cls-25, .cls-28 {
        fill: #dc7f7b;
      }

      .cls-13 {
        fill: #4a2815;
      }

      .cls-14 {
        fill: #837874;
      }

      .cls-15 {
        fill: #2a140e;
      }

      .cls-16 {
        fill: #f3b774;
        stroke-width: 1.15px;
      }

      .cls-17, .cls-18 {
        stroke-width: .79px;
      }

      .cls-17, .cls-26 {
        fill: #231f20;
      }

      .cls-18, .cls-19, .cls-20, .cls-21 {
        fill: #fff;
      }

      .cls-19 {
        stroke-width: 1px;
      }

      .cls-19, .cls-20, .cls-21, .cls-23, .cls-24, .cls-27 {
        stroke: #000;
      }

      .cls-20, .cls-27 {
        stroke-width: .96px;
      }

      .cls-21 {
        stroke-width: .69px;
      }

      .cls-23 {
        fill: #66c8d4;
      }

      .cls-23, .cls-24, .cls-25 {
        stroke-width: 1.39px;
      }

      .cls-24 {
        fill: #d2502b;
      }

      .cls-26 {
        stroke-width: .75px;
      }

      .cls-28, .cls-29, .cls-30, .cls-31 {
        stroke-width: 0px;
      }

      .cls-29 {
        fill: #d2eade;
      }

      .cls-30 {
        fill: #fffdfd;
      }

      .cls-31 {
        fill: #eedaea;
      }
    </style>
  </defs>
  <path class="cls-28" d="M109.98,18.11c-12.33,10.52-24.61,21.1-36.81,31.77-11.29,9.87-22.51,19.82-33.69,29.81-7.12,6.36-14.22,12.74-21.32,19.12l-9.67,12.51-6.23,14.77c-.74,5.48-1.47,10.96-2.21,16.44-.32,8.51,1.45,16.45,5.32,23.82,1.47,5.24,4.12,9.78,7.95,13.64,2.75,4.65,6.44,8.34,11.09,11.09,3.86,3.83,8.4,6.48,13.64,7.95,7.37,3.87,15.31,5.65,23.82,5.32,29.16,2.77,58.49,2.46,87.73,1.63,29.26-.83,58.53-2.18,87.81-1.45,16.42.41,32.84,1.49,49.12,3.67-5.48-.74-10.96-1.47-16.44-2.21,3.04.41,6.07.86,9.1,1.34l-14.77-113c-15.28,11.43-30.56,22.87-45.84,34.3-10.94,8.19-21.88,16.37-32.81,24.56-9.32,6.98-18.64,13.95-27.97,20.93-10.59,7.93-21.18,15.85-31.78,23.78-14.59,10.92-29.18,21.84-43.77,32.76-2.21,1.66-4.43,3.31-6.64,4.97-7.2,3.89-12.99,9.19-17.35,15.92-5.46,5.97-9.15,12.98-11.07,21.02-2.58,8.22-2.94,16.44-1.1,24.65.37,8.23,2.82,15.89,7.34,22.99l9.67,12.51c7.71,7.66,16.81,12.96,27.28,15.9,5.48.74,10.96,1.47,16.44,2.21,11.16-.03,21.56-2.85,31.2-8.44,15.28-11.43,30.56-22.87,45.84-34.3,10.94-8.19,21.88-16.37,32.81-24.56,9.32-6.98,18.64-13.95,27.97-20.93,10.59-7.93,21.18-15.85,31.78-23.78,14.59-10.92,29.18-21.84,43.77-32.76,2.21-1.66,4.43-3.31,6.64-4.97,4.17-3.22,8.34-6.44,12.51-9.67l9.67-12.51,6.23-14.77c2.58-8.22,2.94-16.44,1.1-24.65-.02-5.58-1.42-10.78-4.22-15.6-1.47-5.24-4.12-9.78-7.95-13.64-2.75-4.65-6.44-8.34-11.09-11.09-5.97-5.46-12.98-9.15-21.02-11.07-20.41-3.28-40.97-5.75-61.62-6.75-15.15-.73-30.33-.79-45.49-.56-30.6.47-61.18,2.16-91.79,2.12-17.12-.02-34.26-.6-51.31-2.22,14.57,35.18,29.14,70.36,43.72,105.54,12.05-10.84,24.12-21.66,36.25-32.41,11.22-9.95,22.5-19.83,33.85-29.63,7.22-6.24,14.47-12.46,21.73-18.66,6.03-5.6,10.29-12.23,12.78-19.9,3.87-7.37,5.65-15.31,5.32-23.82.32-8.51-1.45-16.45-5.32-23.82-2.49-7.66-6.75-14.3-12.78-19.9l-12.51-9.67C175.25,2.85,164.85.03,153.69,0c-5.48.74-10.96,1.47-16.44,2.21-10.47,2.94-19.57,8.24-27.28,15.9h0Z"/>
  <path class="cls-18" d="M289.46,237.32c.5-1.27,2.44-1.37,3.47-.46s1.32,2.37,1.44,3.73c.1,1.16.11,2.33.03,3.5-.06.86-.17,1.75-.62,2.49s-1.3,1.29-2.15,1.14c.49-2.01.4-4.16-.28-6.11.76,2.29.98,4.91-.16,7.03-1.14,2.12-3.96,3.43-6.1,2.31-.3-.16-.61-.4-.64-.74-.03-.33.21-.61.41-.86,1.55-1.93,1.42-4,.47-6.29.29,2.32.26,4.03-1.03,5.99-.94,1.42-2.4,2.65-4.1,2.67-1.7.02-3.39-1.67-2.86-3.29.18-.56.58-1.02.9-1.51,1.29-1.99,1.63-3.32,1.17-6.06.31.82-.78,1.05-.87,1.91-1.22.33-2.49.49-3.75.46-1-.02-2.19-.29-2.56-1.22-.45-1.12.59-2.24,1.53-3.01.95-.77,1.91-1.55,3.05-1.98s2.5-.47,3.51.21c-2.09-.03-3.68-2.28-3.48-4.36s1.82-3.81,3.71-4.71c-.98.69-.96,2.27-.2,3.19s2.02,1.29,3.21,1.36c1.41.08,3.47.25,3.95-1.11,1.11-3.16-.1-3.65,3.15-1.67,2.7,1.65,1.01,6.21-1.22,7.38Z"/>
  <path class="cls-26" d="M285.9,225.52c0,.55,0,1.1.12,1.64.25,1.08,1.04,2.06.9,3.16-.13,1-1.04,1.76-2.01,2.04s-5.51-.91-4.53-2.66c.96-1.72.65-5.35.57-7.01-.18-3.77-.58-3.8-1.57-7.02-1.97-6.4-4.54-12.74-8.71-17.98-.53-.67-1.11-1.35-1.34-2.18-.13-.45-.15-.93-.17-1.4-.1-2.03-.29-4.05-.57-6.07-.38-2.71.56-2.13,2.07-.54,2.34,2.46,4.44,5.15,6.29,8.01,3.69,5.71,6.33,12.1,7.75,18.75.79,3.7,1.2,7.48,1.2,11.27Z"/>
  <path class="cls-14" d="M266.7,209.23s6.98-.51,5.34,11.32l-1.33,8.46s1.29,3.4-12.92,5.26l-85.09,18.95s-9.61,1.68-26.26-4.14l-47.41-26.18s-6.75-2.06-5.16-10.66l1.64-10.42s.01-2.43,9.39-2.9l-1.1,6.99,46.09,24.67s9.66,3.75,16.47,4.83c.63.1,1.28.07,1.9-.06l97.78-21.64.66-4.46Z"/>
  <path class="cls-11" d="M216.92,72.81l-49.23.89s-8.47,2.14-7.75,9.27c0,0-1.77,6.55,4.31,10.16,0,0-6.79-.31-11-8.75,0,0-3.61-8.72,7.47-15.7l4.56-.8,44.09,1.08s8.14,2.04,7.55,3.85Z"/>
  <path class="cls-22" d="M263.86,208.2s13.84,2.57,7.54,10.82l-96.69,22.1s-12.24,1.92-27.81-4.39l-48.77-27.73s-10.44-7.04,7.04-10.44c17.48-3.4,158.69,9.64,158.69,9.64Z"/>
  <path class="cls-5" d="M107.01,207.66c-1.89-.72-3.6-2.42-2.69-9.47l7.66-50.85s3.73-17.13,26.38-22.08l69.41-8.73,47.27,19.27s17.07,6.85,18.61,24.81l-8.12,51.43s.9,1.24-5.91,2.79c-6.81,1.55-87.71,19.4-87.71,19.4,0,0-13.3,1.17-22.06-4.36l-39.11-20.57c-.96-.5-2.71-1.25-3.72-1.64Z"/>
  <path class="cls-22" d="M156.35,189.19l2.67-16.9c.1-.62.24-1.23.43-1.83,1.47-4.66,8.6-21.84,34.85-25.68l51.45-8.85s24.07-2.63,28.06,24.23l-8.12,51.43"/>
  <line class="cls-22" x1="119.71" y1="135.52" x2="157.93" y2="154.86"/>
  <line class="cls-22" x1="174.42" y1="151.82" x2="134" y2="132.13"/>
  <path class="cls-13" d="M233.28,130.44s13.01.47,6.91,3.35l-64.59,10.55s-11.13-3.79-9.68-5.81l67.36-8.09Z"/>
  <path class="cls-15" d="M210.6,120.29s13.01.47,6.91,3.35l-64.59,10.55s-11.13-3.79-9.68-5.81l67.36-8.09Z"/>
  <path class="cls-12" d="M230.78,207.63c-1.01,6.38-6.42,12.05-11.66,11.22s-7.32-5.75-6.31-12.14c1.01-6.38,6.4-11.71,11.64-10.89,5.24.83,7.34,5.42,6.33,11.8Z"/>
  <path class="cls-6" d="M226.04,201.16s-7.01-.23-8.06,7.53c0,0-2.08,7.6,5.48,8.79l5.19-1.65s6.26,2.75,7.27-4.75c0,0,1.2-5.36-3.84-5.8l-6.04-4.12Z"/>
  <path class="cls-29" d="M225.23,142.59c.77.48,1.4,1.25,1.05,2.49s-1.47,2.09-2.73,2.3l-30.46,5.06s-11.45,1.87-18.22,11.12c0,0-5.63,10.11-5.75,13.37l-2.17,12.8c-.26,1.54-1.65,2.74-3.2,2.56-.12-.01-.24-.03-.35-.06-1.29-.32-2.01-1.7-1.75-3l2.9-14.25c.06-.29.11-.59.15-.89.24-1.75,2.19-8.86,10.7-17.62,8.3-8.55,21.75-9.98,25.45-10.28.76-.06,1.51-.17,2.26-.32l19.06-3.75c1.05-.21,2.16-.09,3.07.47Z"/>
  <path class="cls-4" d="M157.23,133.4l6.2-39.25s-4.33-2.88-4.26-7.49l1.32-8.36s1.27-5.29,7.74-4.93l47.48-.2s9.06,1.87,8.48,9.69c-.58,7.82-5.8,9.2-5.8,9.2l-5.11,32.39-56.04,8.96Z"/>
  <path class="cls-9" d="M157.95,133.51l-3.88-.61c-1.91-.3-3.39-1.03-2.91-4.11l6.14-38.92c.02-.1,1.66.64,1.75.66l1.78,1.4s2.64,1.69,3.48,2.37l-6.17,39.07c-.02.1-.11.17-.21.16Z"/>
  <path class="cls-2" d="M142.03,141.47s5.79-1.12,4.47,3.31c0,0-4.39,5.22-5.75,8.23-1.27,2.82-7.8,46.23-7.8,46.23,0,0-2.66,3.45-4.9-.77l7.16-45.36s.33-4.85,6.82-11.63Z"/>
  <path class="cls-3" d="M127.78,159.05l18.47,9.43s-7.32,2.68-12,.41c-4.68-2.27-10.66-5.73-10.63-5.91s-2.51-.96,4.16-3.93Z"/>
  <path class="cls-7" d="M145.73,173.57s-6.75,2-11.03,1.13-12.44-6.71-12.44-6.71l1.05-6.65s-.55,2.62,13.61,8.33c0,0,2.22.85,9.61-1.15l-.8,5.05Z"/>
  <path class="cls-16" d="M178.75,142.76l6.04-38.26s-4.34-2.83-4.28-7.32l1.29-8.15s1.25-5.16,7.71-4.78l47.39-.02s9.05,1.86,8.5,9.48c-.55,7.63-5.76,8.95-5.76,8.95l-4.98,31.57-55.91,8.53Z"/>
  <path class="cls-10" d="M179.39,142.87l-3.88-.61c-1.91-.3-3.39-1.02-2.92-4.02l5.99-37.94c.02-.1,1.66.63,1.76.65l1.78,1.37s2.65,1.66,3.49,2.32l-6.01,38.08c-.02.1-.11.17-.21.15Z"/>
  <path class="cls-8" d="M238.1,83.89l-49.2.68s-8.46,2.05-7.71,9.01c0,0-1.75,6.38,4.35,9.93,0,0-6.79-.33-11.03-8.58,0,0-3.64-8.52,7.4-15.28l4.56-.76,44.07,1.23s8.14,2.02,7.56,3.78Z"/>
  <path class="cls-22" d="M164.14,235.21s6.23-38.01,8.33-52.74c1.07-7.49,5.7-13.24,9.99-17.08,3.88-3.47,8.65-5.76,13.76-6.72,15.07-2.84,54.41-10.25,55.55-10.43"/>
  <line class="cls-22" x1="152.72" y1="212.2" x2="149.96" y2="229.68"/>
  <path class="cls-22" d="M236.33,210.84c-.5,3.14-3.16,5.93-5.74,5.52-2.58-.41-3.6-2.83-3.1-5.97s3.15-5.77,5.73-5.36c2.58.41,3.61,2.67,3.11,5.81Z"/>
  <path class="cls-17" d="M90.24,156.65c-1.35.56-2.37,2.08-1.99,3.5.35,1.32,1.66,2.09,2.74,2.92,1.89,1.46,3.32,3.44,5.05,5.08,3,2.85,6.86,4.65,9.96,7.39,1.03.91,1.97,1.92,3.12,2.67,2.49,1.62,5.61,1.8,8.57,1.94,1.7.08,3.41.16,5.11.24.41-1.45.11-2.02-.92-3.12s-2.39-1.82-3.73-2.51c-3.7-1.92-7.4-3.84-11.1-5.76-1.29-.67-2.92-2.34-4.12-3.16-2.63-1.8-4.69-4.26-6.41-6.93-1.42-2.21-3.53-3.41-6.28-2.27Z"/>
  <path class="cls-1" d="M206.39,188.8c.27-1.62-.87-3.21-2.34-4.17-2.23-1.46-5.3-1.82-7.87-.91-2.57.91-4.56,3.05-5.11,5.49"/>
  <path class="cls-1" d="M253.06,182.99c.27-1.62-.87-3.21-2.34-4.17-2.23-1.46-5.3-1.82-7.87-.91-2.57.91-4.56,3.05-5.11,5.49"/>
  <path class="cls-31" d="M190.13,198.38c1.1-.1,2.42-.37,2.79-1.41.28-.78-.19-1.67-.87-2.14-1.9-1.31-8.17-2.08-8.98.83-1.2,4.26,4.9,2.92,7.06,2.72Z"/>
  <path class="cls-31" d="M257.85,191.95c1.1-.1,2.42-.37,2.79-1.41.28-.78-.19-1.67-.87-2.14-1.9-1.31-8.17-2.08-8.98.83-1.2,4.26,4.9,2.92,7.06,2.72Z"/>
  <path class="cls-23" d="M68.4,77.99l5.86,16.56c1.21,2.91,1.09,5.99-1.39,7.72-.37.26-.64.64-.8,1.06-1.08,2.81-.75,5.11-.6,5.86.03.14.07.28.13.42l4.22,10.43c.5,1.23-.11,2.64-1.36,3.11h0c-1.23.47-2.61-.16-3.07-1.39l-3.91-10.45c-.06-.17-.14-.34-.24-.49-1.13-1.66-3.42-2.66-5.43-3.25-.4-.12-.82-.07-1.24-.05-1.6.06-4.32-1.28-5.34-3.73l-8.01-16.75c-.72-1.75.1-3.75,1.85-4.48l15.09-6.32c1.66-.7,3.56.09,4.25,1.75Z"/>
  <path class="cls-24" d="M71.6,122.97l4.89-2.14,10.65,21.97s-.53,8.02-7.6,2.85l-7.95-22.68Z"/>
  <circle class="cls-21" cx="83.05" cy="143.46" r="1.53"/>
  <path class="cls-30" d="M62.66,104.09c.71.08,1.42.2,2.09.44.88.32,1.66.85,2.43,1.38.58.4,1.17.82,1.5,1.44.09.16.15.36.09.53-.08.24-.39.35-.65.29s-.46-.23-.66-.4c-1.21-1.03-2.5-2.1-4.06-2.42-.77-.16-4.48.23-4.67-.81-.18-.98,3.47-.51,3.93-.45Z"/>
  <rect class="cls-25" x="54.06" y="85.26" width="3.43" height="17.55" rx="1.57" ry="1.57" transform="translate(-35.62 34.04) rotate(-26.04)"/>
  <rect class="cls-25" x="65.7" y="80.5" width="3.43" height="17.55" rx="1.57" ry="1.57" transform="translate(-24.62 25.68) rotate(-18.3)"/>
  <rect class="cls-25" x="59.64" y="82.53" width="3.43" height="17.55" rx="1.57" ry="1.57" transform="translate(-30.4 30.62) rotate(-22.62)"/>
  <path class="cls-20" d="M75.68,133.74c-.82-.02-1.69.05-2.4.47-1.16.68-1.55,2.14-1.27,3.34.28,1.2,1.08,2.21,1.87,3.19,0-.55-.86-.74-1.35-.41s-.66.92-.78,1.46c-.41,1.94-.51,3.98.11,5.83,1,2.97,3.68,5.08,6.26,7.03,1.58,1.2,3.36,2.46,5.45,2.32-.5-.32-1.27-.12-1.67.35s-.44,1.11-.27,1.66c.46,1.45,3.43,4.73,5.01,4.21.19-.06,1.4-.09,1.36-.38-.19-1.45.44-4.7,1.59-5.44,1.61-1.04,2.89-1.01,4.86-1.01.18,0,2,.52,2.09.44.59-.57-1.56-4.72-2.6-5.43-.78-.53-1.92-.49-2.83-.09s-1.78,1.36-2.35,2.74c1.13-1.28,1.1-1.19,1.76-1.89s.55-.77.97-1.64c.83-1.72.58-3.72-.22-5.38s-2.07-3.07-3.34-4.44c-3.38-3.68-6.53-6.76-12.25-6.92Z"/>
  <path class="cls-27" d="M76.85,139.75c1.04-.22,2.11-.14,3.16-.06.57.04,1.13.09,1.7.13.59.05,1.19.09,1.75.26,1.16.35,2.13,1.38,1.97,2.52-.03.22-.1.44-.26.61-.2.22-.49.33-.78.43-1.53.53-3.12.91-4.59,1.58s-2.85,1.7-3.49,3.1c.35-1.16,1.6-1.87,2.75-2.45,1.8-.92,3.63-1.85,5.61-2.25.57-.12,1.25-.17,1.65.21.25.23.33.58.34.92.02.51-.11,1.02-.37,1.48-.54.98-1.59,1.63-2.55,2.29-1.21.83-2.34,1.77-3.38,2.78.26-.27.52-.54.77-.81.29-.3.57-.6.91-.85.52-.39,1.14-.64,1.75-.88.59-.23,1.22-.48,1.83-.38.8.13,1.37.83,1.49,1.58s-.16,1.52-.55,2.21-.9,1.31-1.33,1.98"/>
  <path class="cls-19" d="M88.03,133.62c.59.21,1.15.5,1.55.95.73.81.82,1.97.79,3.05-.05,1.88-.4,3.87-1.69,5.38-.51.59-1.09.6-1.89.69-.74.09-1.13-.62-1.65-1.1s-.85-1.1-1.11-1.74c-.83-2.04-1.59-3.84-.8-6.02.69-1.92,3.07-1.82,4.79-1.21Z"/>
</svg>